<?xml version="1.0" standalone="no"?>
<!DOCTYPE svg PUBLIC "-//W3C//DTD SVG 20010904//EN"
 "http://www.w3.org/TR/2001/REC-SVG-20010904/DTD/svg10.dtd">
<svg version="1.0" xmlns="http://www.w3.org/2000/svg"
 width="180.000000pt" height="180.000000pt" viewBox="0 0 180.000000 180.000000"
 preserveAspectRatio="xMidYMid meet">

<g transform="translate(0.000000,180.000000) scale(0.100000,-0.100000)"
fill="#000000" stroke="none">
<path d="M740 1776 c-193 -41 -327 -113 -465 -251 -81 -81 -109 -117 -147
-190 -91 -175 -124 -314 -115 -475 19 -320 198 -595 485 -743 118 -61 217 -87
362 -94 344 -16 662 165 818 465 57 109 78 172 98 299 19 114 13 218 -21 348
-40 155 -161 340 -293 450 -80 68 -237 147 -347 176 -102 27 -284 34 -375 15z
m370 -41 c36 -9 117 -42 179 -72 102 -50 125 -67 206 -147 277 -275 339 -654
165 -1001 -85 -170 -205 -290 -375 -375 -137 -69 -230 -92 -380 -92 -241 -2
-449 84 -616 253 -266 269 -322 664 -144 1008 114 220 324 377 575 432 103 23
289 20 390 -6z"/>
<path d="M437 1524 c-19 -19 0 -24 89 -24 136 0 134 2 134 -131 0 -100 2 -110
18 -107 15 3 17 18 20 109 4 149 0 153 -145 157 -59 2 -111 0 -116 -4z"/>
<path d="M776 1514 c-14 -14 -17 -27 -12 -63 8 -57 16 -65 71 -65 52 -1 61 17
13 24 -24 4 -35 12 -42 31 -16 46 -3 59 59 59 91 0 95 -5 95 -115 l0 -95 -95
0 c-79 0 -95 -3 -95 -15 0 -13 17 -15 113 -13 l112 3 3 110 c4 147 2 149 -116
153 -75 3 -92 1 -106 -14z"/>
<path d="M1076 1521 c-4 -5 -2 -31 4 -57 7 -28 8 -80 4 -126 -6 -67 -4 -78 9
-78 11 0 20 21 32 73 22 95 48 153 74 162 57 18 91 -33 91 -139 l0 -65 -47 -3
c-27 -2 -48 -8 -51 -16 -3 -10 12 -12 65 -10 l68 3 3 70 c4 92 -3 128 -34 165
-19 22 -34 30 -59 30 -48 0 -63 -8 -90 -48 l-25 -36 -6 32 c-7 35 -28 59 -38
43z"/>
<path d="M840 1450 c0 -15 5 -20 18 -18 9 2 17 10 17 18 0 8 -8 16 -17 18 -13
2 -18 -3 -18 -18z"/>
<path d="M475 1427 c-3 -7 -5 -47 -3 -88 3 -62 6 -74 21 -77 16 -3 18 4 15 84
-2 59 -7 89 -15 92 -7 2 -15 -3 -18 -11z"/>
<path d="M813 1136 c-47 -21 -75 -71 -70 -123 3 -33 18 -60 62 -118 32 -41 61
-75 64 -75 22 1 119 128 132 173 20 69 -37 146 -113 153 -25 3 -57 -2 -75 -10z
m120 -46 c31 -25 43 -70 26 -102 -22 -42 -74 -107 -85 -108 -21 0 -94 111 -94
145 0 72 93 112 153 65z"/>
<path d="M842 1064 c-24 -17 -30 -62 -10 -82 17 -17 64 -15 82 4 45 45 -20
115 -72 78z m46 -42 c2 -7 -3 -12 -12 -12 -9 0 -16 7 -16 16 0 17 22 14 28 -4z"/>
<path d="M250 924 c0 -8 9 -68 21 -132 18 -105 19 -130 10 -246 -8 -87 -8
-133 -1 -140 16 -16 28 5 32 54 l3 45 107 3 107 3 7 -61 c5 -44 11 -60 22 -60
13 0 14 19 8 147 -4 81 -10 151 -12 155 -3 4 -56 8 -118 8 l-112 0 -18 98
c-10 53 -20 107 -23 120 -6 25 -33 30 -33 6z m273 -278 c3 -8 3 -17 0 -20 -11
-10 -191 -7 -198 4 -14 23 11 30 100 30 70 0 94 -3 98 -14z m2 -81 c0 -18 -8
-20 -94 -23 -96 -3 -119 4 -108 33 6 13 22 15 104 13 90 -3 98 -5 98 -23z"/>
<path d="M1493 913 c-3 -16 -14 -68 -22 -118 l-16 -90 -115 -5 -115 -5 -6 -40
c-4 -22 -8 -89 -10 -150 -3 -93 -2 -110 11 -110 11 0 16 15 20 55 l5 55 107 3
106 3 7 -56 c5 -39 12 -55 22 -55 13 0 14 21 8 153 -5 131 -3 167 14 257 12
58 21 111 21 117 0 25 -30 13 -37 -14z m-43 -273 c0 -19 -7 -20 -100 -20 -93
0 -100 1 -100 20 0 19 7 20 100 20 93 0 100 -1 100 -20z m-1 -59 c8 -5 11 -16
8 -25 -5 -13 -23 -16 -101 -16 -95 0 -113 7 -102 35 4 12 26 15 93 15 48 0 94
-4 102 -9z"/>
<path d="M592 733 l3 -58 42 -3 42 -3 -19 -32 c-17 -26 -20 -51 -20 -139 0
-89 3 -108 15 -108 12 0 15 17 15 90 0 100 14 148 51 174 19 13 50 16 166 16
136 0 143 -1 170 -24 27 -24 28 -27 31 -141 3 -102 6 -116 20 -113 27 5 29
174 3 233 l-20 45 32 0 c50 0 59 11 55 66 l-3 49 -293 3 -293 2 3 -57z m548 2
l0 -25 -260 0 c-245 0 -260 1 -260 18 0 10 3 22 7 25 3 4 120 7 260 7 l253 0
0 -25z"/>
</g>
</svg>
